<mxfile host="app.diagrams.net" agent="Mozilla/5.0 (Windows NT 10.0; Win64; x64) AppleWebKit/537.36 (KHTML, like Gecko) Chrome/133.0.0.0 Safari/537.36" version="26.0.13">
  <diagram name="Page-1" id="SU2UVLoly4shiKuvKJzg">
    <mxGraphModel dx="1259" dy="655" grid="1" gridSize="10" guides="1" tooltips="1" connect="1" arrows="1" fold="1" page="1" pageScale="1" pageWidth="850" pageHeight="1100" math="0" shadow="0">
      <root>
        <mxCell id="0" />
        <mxCell id="1" parent="0" />
        <mxCell id="wsQ0c3Hyv65lsbDW5wMC-1" value="&lt;font style=&quot;color: rgb(0, 0, 204);&quot; face=&quot;Comic Sans MS&quot;&gt;&lt;b&gt;AWS Account&lt;/b&gt;&lt;/font&gt;" style="points=[[0,0],[0.25,0],[0.5,0],[0.75,0],[1,0],[1,0.25],[1,0.5],[1,0.75],[1,1],[0.75,1],[0.5,1],[0.25,1],[0,1],[0,0.75],[0,0.5],[0,0.25]];outlineConnect=0;html=1;whiteSpace=wrap;fontSize=12;fontStyle=0;container=1;pointerEvents=0;collapsible=0;recursiveResize=0;shape=mxgraph.aws4.group;grIcon=mxgraph.aws4.group_account;verticalAlign=top;align=left;spacingLeft=30;dashed=1;strokeWidth=2;fillColor=#dae8fc;strokeColor=#6c8ebf;" parent="1" vertex="1">
          <mxGeometry x="40" y="80" width="710" height="560" as="geometry" />
        </mxCell>
        <mxCell id="wsQ0c3Hyv65lsbDW5wMC-2" value="" style="sketch=0;points=[[0,0,0],[0.25,0,0],[0.5,0,0],[0.75,0,0],[1,0,0],[0,1,0],[0.25,1,0],[0.5,1,0],[0.75,1,0],[1,1,0],[0,0.25,0],[0,0.5,0],[0,0.75,0],[1,0.25,0],[1,0.5,0],[1,0.75,0]];outlineConnect=0;fontColor=#232F3E;fillColor=#8C4FFF;strokeColor=#ffffff;dashed=0;verticalLabelPosition=bottom;verticalAlign=top;align=center;html=1;fontSize=12;fontStyle=0;aspect=fixed;shape=mxgraph.aws4.resourceIcon;resIcon=mxgraph.aws4.route_53;" parent="wsQ0c3Hyv65lsbDW5wMC-1" vertex="1">
          <mxGeometry x="325" y="40" width="40" height="40" as="geometry" />
        </mxCell>
        <mxCell id="wsQ0c3Hyv65lsbDW5wMC-3" value="&lt;b&gt;&lt;font style=&quot;color: rgb(46, 10, 255); background-color: rgb(251, 255, 103); font-size: 15px;&quot; face=&quot;Comic Sans MS&quot;&gt;*.app-dev.joindevops.com&lt;/font&gt;&lt;/b&gt;" style="text;html=1;align=center;verticalAlign=middle;resizable=0;points=[];autosize=1;strokeColor=none;fillColor=none;" parent="wsQ0c3Hyv65lsbDW5wMC-1" vertex="1">
          <mxGeometry x="370" y="45" width="210" height="30" as="geometry" />
        </mxCell>
        <mxCell id="wsQ0c3Hyv65lsbDW5wMC-7" style="edgeStyle=orthogonalEdgeStyle;rounded=0;orthogonalLoop=1;jettySize=auto;html=1;entryX=0.5;entryY=0;entryDx=0;entryDy=0;flowAnimation=1;" parent="wsQ0c3Hyv65lsbDW5wMC-1" source="wsQ0c3Hyv65lsbDW5wMC-4" edge="1">
          <mxGeometry relative="1" as="geometry">
            <mxPoint x="345" y="230" as="targetPoint" />
          </mxGeometry>
        </mxCell>
        <mxCell id="wsQ0c3Hyv65lsbDW5wMC-4" value="" style="outlineConnect=0;dashed=0;verticalLabelPosition=bottom;verticalAlign=top;align=center;html=1;shape=mxgraph.aws3.application_load_balancer;fillColor=#F58534;gradientColor=none;" parent="wsQ0c3Hyv65lsbDW5wMC-1" vertex="1">
          <mxGeometry x="320" y="130" width="50" height="50" as="geometry" />
        </mxCell>
        <mxCell id="wsQ0c3Hyv65lsbDW5wMC-5" style="edgeStyle=orthogonalEdgeStyle;rounded=0;orthogonalLoop=1;jettySize=auto;html=1;entryX=0.5;entryY=0;entryDx=0;entryDy=0;entryPerimeter=0;flowAnimation=1;" parent="wsQ0c3Hyv65lsbDW5wMC-1" source="wsQ0c3Hyv65lsbDW5wMC-2" target="wsQ0c3Hyv65lsbDW5wMC-4" edge="1">
          <mxGeometry relative="1" as="geometry" />
        </mxCell>
        <mxCell id="wsQ0c3Hyv65lsbDW5wMC-8" value="&lt;b&gt;&lt;font style=&quot;color: rgb(0, 102, 0); font-size: 15px;&quot; face=&quot;Comic Sans MS&quot;&gt;Internal Backend ALB&lt;/font&gt;&lt;/b&gt;" style="text;html=1;align=center;verticalAlign=middle;resizable=0;points=[];autosize=1;" parent="wsQ0c3Hyv65lsbDW5wMC-1" vertex="1">
          <mxGeometry x="375" y="140" width="180" height="30" as="geometry" />
        </mxCell>
        <mxCell id="wsQ0c3Hyv65lsbDW5wMC-14" style="edgeStyle=orthogonalEdgeStyle;rounded=0;orthogonalLoop=1;jettySize=auto;html=1;entryX=0.5;entryY=0;entryDx=0;entryDy=0;flowAnimation=1;" parent="wsQ0c3Hyv65lsbDW5wMC-1" source="wsQ0c3Hyv65lsbDW5wMC-11" target="wsQ0c3Hyv65lsbDW5wMC-13" edge="1">
          <mxGeometry relative="1" as="geometry" />
        </mxCell>
        <mxCell id="wsQ0c3Hyv65lsbDW5wMC-36" style="edgeStyle=orthogonalEdgeStyle;rounded=0;orthogonalLoop=1;jettySize=auto;html=1;flowAnimation=1;" parent="wsQ0c3Hyv65lsbDW5wMC-1" source="wsQ0c3Hyv65lsbDW5wMC-11" target="wsQ0c3Hyv65lsbDW5wMC-16" edge="1">
          <mxGeometry relative="1" as="geometry" />
        </mxCell>
        <mxCell id="wsQ0c3Hyv65lsbDW5wMC-11" value="" style="image;aspect=fixed;perimeter=ellipsePerimeter;html=1;align=center;shadow=0;dashed=0;fontColor=#4277BB;labelBackgroundColor=default;fontSize=12;spacingTop=3;image=img/lib/ibm/vpc/LoadBalancerListener.svg;" parent="wsQ0c3Hyv65lsbDW5wMC-1" vertex="1">
          <mxGeometry x="315" y="230" width="60" height="60" as="geometry" />
        </mxCell>
        <mxCell id="wsQ0c3Hyv65lsbDW5wMC-12" value="&lt;font style=&quot;color: rgb(0, 127, 255); font-size: 15px;&quot; face=&quot;Comic Sans MS&quot;&gt;&lt;b style=&quot;&quot;&gt;HTTP Listener&lt;/b&gt;&lt;/font&gt;" style="text;html=1;align=center;verticalAlign=middle;resizable=0;points=[];autosize=1;strokeColor=none;fillColor=none;" parent="wsQ0c3Hyv65lsbDW5wMC-1" vertex="1">
          <mxGeometry x="380" y="210" width="130" height="30" as="geometry" />
        </mxCell>
        <mxCell id="wsQ0c3Hyv65lsbDW5wMC-13" value="" style="image;aspect=fixed;perimeter=ellipsePerimeter;html=1;align=center;shadow=0;dashed=0;fontColor=#4277BB;labelBackgroundColor=default;fontSize=12;spacingTop=3;image=img/lib/ibm/vpc/Rules.svg;" parent="wsQ0c3Hyv65lsbDW5wMC-1" vertex="1">
          <mxGeometry x="203.09" y="330" width="60" height="60" as="geometry" />
        </mxCell>
        <mxCell id="wsQ0c3Hyv65lsbDW5wMC-15" value="&lt;font style=&quot;color: rgb(181, 115, 157); font-size: 15px;&quot; face=&quot;Comic Sans MS&quot;&gt;&lt;b style=&quot;&quot;&gt;backend.app-dev.&lt;/b&gt;&lt;/font&gt;&lt;div&gt;&lt;font style=&quot;color: rgb(181, 115, 157); font-size: 15px;&quot; face=&quot;Comic Sans MS&quot;&gt;&lt;b style=&quot;&quot;&gt;joindevops.com&lt;/b&gt;&lt;/font&gt;&lt;/div&gt;" style="text;html=1;align=center;verticalAlign=middle;resizable=0;points=[];autosize=1;strokeColor=none;fillColor=none;" parent="wsQ0c3Hyv65lsbDW5wMC-1" vertex="1">
          <mxGeometry x="50" y="335" width="150" height="50" as="geometry" />
        </mxCell>
        <mxCell id="wsQ0c3Hyv65lsbDW5wMC-16" value="" style="image;aspect=fixed;perimeter=ellipsePerimeter;html=1;align=center;shadow=0;dashed=0;fontColor=#4277BB;labelBackgroundColor=default;fontSize=12;spacingTop=3;image=img/lib/ibm/vpc/Rules.svg;" parent="wsQ0c3Hyv65lsbDW5wMC-1" vertex="1">
          <mxGeometry x="450" y="330" width="60" height="60" as="geometry" />
        </mxCell>
        <mxCell id="wsQ0c3Hyv65lsbDW5wMC-32" value="&lt;b&gt;&lt;font style=&quot;color: rgb(51, 51, 255);&quot;&gt;Health Check&lt;/font&gt;&lt;/b&gt;" style="text;html=1;align=center;verticalAlign=middle;resizable=0;points=[];autosize=1;strokeColor=none;fillColor=none;" parent="wsQ0c3Hyv65lsbDW5wMC-1" vertex="1">
          <mxGeometry x="183.09" y="400" width="100" height="30" as="geometry" />
        </mxCell>
        <mxCell id="wsQ0c3Hyv65lsbDW5wMC-34" value="" style="group" parent="wsQ0c3Hyv65lsbDW5wMC-1" vertex="1" connectable="0">
          <mxGeometry x="170" y="430" width="140" height="100" as="geometry" />
        </mxCell>
        <mxCell id="wsQ0c3Hyv65lsbDW5wMC-17" value="" style="rounded=1;whiteSpace=wrap;html=1;" parent="wsQ0c3Hyv65lsbDW5wMC-34" vertex="1">
          <mxGeometry width="140" height="100" as="geometry" />
        </mxCell>
        <mxCell id="wsQ0c3Hyv65lsbDW5wMC-18" value="" style="sketch=0;points=[[0,0,0],[0.25,0,0],[0.5,0,0],[0.75,0,0],[1,0,0],[0,1,0],[0.25,1,0],[0.5,1,0],[0.75,1,0],[1,1,0],[0,0.25,0],[0,0.5,0],[0,0.75,0],[1,0.25,0],[1,0.5,0],[1,0.75,0]];outlineConnect=0;fontColor=#232F3E;fillColor=#ED7100;strokeColor=#ffffff;dashed=0;verticalLabelPosition=bottom;verticalAlign=top;align=center;html=1;fontSize=12;fontStyle=0;aspect=fixed;shape=mxgraph.aws4.resourceIcon;resIcon=mxgraph.aws4.ec2;direction=south;" parent="wsQ0c3Hyv65lsbDW5wMC-34" vertex="1">
          <mxGeometry x="15" y="60" width="30" height="30" as="geometry" />
        </mxCell>
        <mxCell id="wsQ0c3Hyv65lsbDW5wMC-19" value="" style="sketch=0;points=[[0,0,0],[0.25,0,0],[0.5,0,0],[0.75,0,0],[1,0,0],[0,1,0],[0.25,1,0],[0.5,1,0],[0.75,1,0],[1,1,0],[0,0.25,0],[0,0.5,0],[0,0.75,0],[1,0.25,0],[1,0.5,0],[1,0.75,0]];outlineConnect=0;fontColor=#232F3E;fillColor=#ED7100;strokeColor=#ffffff;dashed=0;verticalLabelPosition=bottom;verticalAlign=top;align=center;html=1;fontSize=12;fontStyle=0;aspect=fixed;shape=mxgraph.aws4.resourceIcon;resIcon=mxgraph.aws4.ec2;" parent="wsQ0c3Hyv65lsbDW5wMC-34" vertex="1">
          <mxGeometry x="90" y="60" width="30" height="30" as="geometry" />
        </mxCell>
        <mxCell id="wsQ0c3Hyv65lsbDW5wMC-23" style="edgeStyle=orthogonalEdgeStyle;rounded=0;orthogonalLoop=1;jettySize=auto;html=1;" parent="wsQ0c3Hyv65lsbDW5wMC-34" source="wsQ0c3Hyv65lsbDW5wMC-20" target="wsQ0c3Hyv65lsbDW5wMC-19" edge="1">
          <mxGeometry relative="1" as="geometry" />
        </mxCell>
        <mxCell id="wsQ0c3Hyv65lsbDW5wMC-20" value="" style="sketch=0;aspect=fixed;pointerEvents=1;shadow=0;dashed=0;html=1;strokeColor=none;labelPosition=center;verticalLabelPosition=bottom;verticalAlign=top;align=center;fillColor=#00188D;shape=mxgraph.azure.health_monitoring" parent="wsQ0c3Hyv65lsbDW5wMC-34" vertex="1">
          <mxGeometry x="45" y="8" width="38.09" height="32" as="geometry" />
        </mxCell>
        <mxCell id="wsQ0c3Hyv65lsbDW5wMC-30" style="edgeStyle=orthogonalEdgeStyle;rounded=0;orthogonalLoop=1;jettySize=auto;html=1;entryX=0;entryY=0.5;entryDx=0;entryDy=0;entryPerimeter=0;" parent="wsQ0c3Hyv65lsbDW5wMC-34" source="wsQ0c3Hyv65lsbDW5wMC-20" target="wsQ0c3Hyv65lsbDW5wMC-18" edge="1">
          <mxGeometry relative="1" as="geometry">
            <Array as="points">
              <mxPoint x="30" y="24" />
            </Array>
          </mxGeometry>
        </mxCell>
        <mxCell id="wsQ0c3Hyv65lsbDW5wMC-35" style="edgeStyle=orthogonalEdgeStyle;rounded=0;orthogonalLoop=1;jettySize=auto;html=1;entryX=0.495;entryY=0.2;entryDx=0;entryDy=0;entryPerimeter=0;flowAnimation=1;" parent="wsQ0c3Hyv65lsbDW5wMC-1" source="wsQ0c3Hyv65lsbDW5wMC-13" target="wsQ0c3Hyv65lsbDW5wMC-20" edge="1">
          <mxGeometry relative="1" as="geometry" />
        </mxCell>
        <mxCell id="wsQ0c3Hyv65lsbDW5wMC-42" value="" style="rounded=1;whiteSpace=wrap;html=1;" parent="wsQ0c3Hyv65lsbDW5wMC-1" vertex="1">
          <mxGeometry x="410" y="430" width="140" height="100" as="geometry" />
        </mxCell>
        <mxCell id="wsQ0c3Hyv65lsbDW5wMC-43" value="" style="sketch=0;points=[[0,0,0],[0.25,0,0],[0.5,0,0],[0.75,0,0],[1,0,0],[0,1,0],[0.25,1,0],[0.5,1,0],[0.75,1,0],[1,1,0],[0,0.25,0],[0,0.5,0],[0,0.75,0],[1,0.25,0],[1,0.5,0],[1,0.75,0]];outlineConnect=0;fontColor=#232F3E;fillColor=#ED7100;strokeColor=#ffffff;dashed=0;verticalLabelPosition=bottom;verticalAlign=top;align=center;html=1;fontSize=12;fontStyle=0;aspect=fixed;shape=mxgraph.aws4.resourceIcon;resIcon=mxgraph.aws4.ec2;" parent="wsQ0c3Hyv65lsbDW5wMC-1" vertex="1">
          <mxGeometry x="420" y="480" width="30" height="30" as="geometry" />
        </mxCell>
        <mxCell id="wsQ0c3Hyv65lsbDW5wMC-44" value="" style="sketch=0;points=[[0,0,0],[0.25,0,0],[0.5,0,0],[0.75,0,0],[1,0,0],[0,1,0],[0.25,1,0],[0.5,1,0],[0.75,1,0],[1,1,0],[0,0.25,0],[0,0.5,0],[0,0.75,0],[1,0.25,0],[1,0.5,0],[1,0.75,0]];outlineConnect=0;fontColor=#232F3E;fillColor=#ED7100;strokeColor=#ffffff;dashed=0;verticalLabelPosition=bottom;verticalAlign=top;align=center;html=1;fontSize=12;fontStyle=0;aspect=fixed;shape=mxgraph.aws4.resourceIcon;resIcon=mxgraph.aws4.ec2;direction=south;" parent="wsQ0c3Hyv65lsbDW5wMC-1" vertex="1">
          <mxGeometry x="510" y="480" width="30" height="30" as="geometry" />
        </mxCell>
        <mxCell id="wsQ0c3Hyv65lsbDW5wMC-45" value="" style="sketch=0;aspect=fixed;pointerEvents=1;shadow=0;dashed=0;html=1;strokeColor=none;labelPosition=center;verticalLabelPosition=bottom;verticalAlign=top;align=center;fillColor=#00188D;shape=mxgraph.azure.health_monitoring" parent="wsQ0c3Hyv65lsbDW5wMC-1" vertex="1">
          <mxGeometry x="460.95" y="438" width="38.09" height="32" as="geometry" />
        </mxCell>
        <mxCell id="wsQ0c3Hyv65lsbDW5wMC-46" value="&lt;font style=&quot;color: rgb(51, 51, 255);&quot;&gt;&lt;b&gt;Health Check&lt;/b&gt;&lt;/font&gt;" style="text;html=1;align=center;verticalAlign=middle;resizable=0;points=[];autosize=1;strokeColor=none;fillColor=none;" parent="wsQ0c3Hyv65lsbDW5wMC-1" vertex="1">
          <mxGeometry x="429.99999999999994" y="400" width="100" height="30" as="geometry" />
        </mxCell>
        <mxCell id="wsQ0c3Hyv65lsbDW5wMC-47" style="edgeStyle=orthogonalEdgeStyle;rounded=0;orthogonalLoop=1;jettySize=auto;html=1;entryX=0.495;entryY=0.2;entryDx=0;entryDy=0;entryPerimeter=0;flowAnimation=1;" parent="wsQ0c3Hyv65lsbDW5wMC-1" source="wsQ0c3Hyv65lsbDW5wMC-16" target="wsQ0c3Hyv65lsbDW5wMC-45" edge="1">
          <mxGeometry relative="1" as="geometry" />
        </mxCell>
        <mxCell id="wsQ0c3Hyv65lsbDW5wMC-48" value="&lt;div&gt;&lt;b&gt;&lt;font style=&quot;color: rgb(0, 127, 255); font-size: 15px;&quot; face=&quot;Comic Sans MS&quot;&gt;Backend&lt;/font&gt;&lt;/b&gt;&lt;/div&gt;&lt;b&gt;&lt;font style=&quot;color: rgb(0, 127, 255); font-size: 15px;&quot; face=&quot;Comic Sans MS&quot;&gt;Target Group&lt;/font&gt;&lt;/b&gt;" style="text;html=1;align=center;verticalAlign=middle;resizable=0;points=[];autosize=1;strokeColor=none;fillColor=none;" parent="wsQ0c3Hyv65lsbDW5wMC-1" vertex="1">
          <mxGeometry x="50" y="430" width="120" height="50" as="geometry" />
        </mxCell>
        <mxCell id="wsQ0c3Hyv65lsbDW5wMC-49" value="&lt;b&gt;&lt;font style=&quot;color: rgb(181, 115, 157); font-size: 15px;&quot; face=&quot;Comic Sans MS&quot;&gt;analytics.app-dev.&lt;/font&gt;&lt;/b&gt;&lt;div&gt;&lt;b&gt;&lt;font style=&quot;color: rgb(181, 115, 157); font-size: 15px;&quot; face=&quot;Comic Sans MS&quot;&gt;joindevops.com&lt;/font&gt;&lt;/b&gt;&lt;/div&gt;" style="text;html=1;align=center;verticalAlign=middle;resizable=0;points=[];autosize=1;strokeColor=none;fillColor=none;" parent="wsQ0c3Hyv65lsbDW5wMC-1" vertex="1">
          <mxGeometry x="510" y="335" width="160" height="50" as="geometry" />
        </mxCell>
        <mxCell id="wsQ0c3Hyv65lsbDW5wMC-50" style="edgeStyle=orthogonalEdgeStyle;rounded=0;orthogonalLoop=1;jettySize=auto;html=1;entryX=0.5;entryY=0;entryDx=0;entryDy=0;entryPerimeter=0;" parent="wsQ0c3Hyv65lsbDW5wMC-1" source="wsQ0c3Hyv65lsbDW5wMC-45" target="wsQ0c3Hyv65lsbDW5wMC-43" edge="1">
          <mxGeometry relative="1" as="geometry" />
        </mxCell>
        <mxCell id="wsQ0c3Hyv65lsbDW5wMC-51" style="edgeStyle=orthogonalEdgeStyle;rounded=0;orthogonalLoop=1;jettySize=auto;html=1;entryX=0;entryY=0.5;entryDx=0;entryDy=0;entryPerimeter=0;" parent="wsQ0c3Hyv65lsbDW5wMC-1" source="wsQ0c3Hyv65lsbDW5wMC-45" target="wsQ0c3Hyv65lsbDW5wMC-44" edge="1">
          <mxGeometry relative="1" as="geometry" />
        </mxCell>
        <mxCell id="wsQ0c3Hyv65lsbDW5wMC-52" value="&lt;div&gt;&lt;b&gt;&lt;font style=&quot;color: rgb(0, 127, 255); font-size: 15px;&quot; face=&quot;Comic Sans MS&quot;&gt;Analytics&lt;/font&gt;&lt;/b&gt;&lt;/div&gt;&lt;b&gt;&lt;font style=&quot;color: rgb(0, 127, 255); font-size: 15px;&quot; face=&quot;Comic Sans MS&quot;&gt;Target Group&lt;/font&gt;&lt;/b&gt;" style="text;html=1;align=center;verticalAlign=middle;resizable=0;points=[];autosize=1;strokeColor=none;fillColor=none;" parent="wsQ0c3Hyv65lsbDW5wMC-1" vertex="1">
          <mxGeometry x="545" y="435" width="120" height="50" as="geometry" />
        </mxCell>
        <mxCell id="wsQ0c3Hyv65lsbDW5wMC-53" value="&lt;font style=&quot;&quot; face=&quot;Comic Sans MS&quot;&gt;&lt;b&gt;Host Header based rules&lt;/b&gt;&lt;/font&gt;" style="text;html=1;align=center;verticalAlign=middle;resizable=0;points=[];autosize=1;strokeColor=none;fillColor=none;" parent="wsQ0c3Hyv65lsbDW5wMC-1" vertex="1">
          <mxGeometry x="270" y="340" width="170" height="30" as="geometry" />
        </mxCell>
        <mxCell id="UeaW_8wpb7T_RMyR83AY-1" value="&lt;b&gt;&lt;font face=&quot;Comic Sans MS&quot; style=&quot;font-size: 15px; color: rgb(255, 51, 51);&quot;&gt;How Internal Load Balancer works?&lt;/font&gt;&lt;/b&gt;" style="text;html=1;align=center;verticalAlign=middle;resizable=0;points=[];autosize=1;strokeColor=none;fillColor=none;" vertex="1" parent="wsQ0c3Hyv65lsbDW5wMC-1">
          <mxGeometry x="205" width="280" height="30" as="geometry" />
        </mxCell>
        <mxCell id="UeaW_8wpb7T_RMyR83AY-2" value="&lt;b&gt;&lt;font style=&quot;color: rgb(153, 0, 0);&quot;&gt;Priority: 10&lt;/font&gt;&lt;/b&gt;" style="text;html=1;align=center;verticalAlign=middle;resizable=0;points=[];autosize=1;strokeColor=none;fillColor=none;" vertex="1" parent="wsQ0c3Hyv65lsbDW5wMC-1">
          <mxGeometry x="115" y="300" width="90" height="30" as="geometry" />
        </mxCell>
        <mxCell id="UeaW_8wpb7T_RMyR83AY-3" value="&lt;b&gt;&lt;font style=&quot;color: rgb(153, 0, 0);&quot;&gt;Priority: 20&lt;/font&gt;&lt;/b&gt;" style="text;html=1;align=center;verticalAlign=middle;resizable=0;points=[];autosize=1;strokeColor=none;fillColor=none;" vertex="1" parent="wsQ0c3Hyv65lsbDW5wMC-1">
          <mxGeometry x="530" y="310" width="90" height="30" as="geometry" />
        </mxCell>
      </root>
    </mxGraphModel>
  </diagram>
</mxfile>
